HIERARCHY
ROOT Hips
{
	OFFSET 55.310501 45.591206 43.872097
	CHANNELS 6 Xposition Yposition Zposition Zrotation Xrotation Yrotation
	JOINT Chest
	{
		OFFSET -0.153500 1.163101 7.852402
		CHANNELS 6 Xposition Yposition Zposition Zrotation Xrotation Yrotation
		JOINT Chest2
		{
			OFFSET 0.000000 0.000000 3.343300
			CHANNELS 6 Xposition Yposition Zposition Zrotation Xrotation Yrotation
			JOINT Neck
			{
				OFFSET 0.000000 0.000000 7.785500
				CHANNELS 6 Xposition Yposition Zposition Zrotation Xrotation Yrotation
				JOINT Head
				{
					OFFSET 0.000000 0.000000 2.173901
					CHANNELS 6 Xposition Yposition Zposition Zrotation Xrotation Yrotation
					End Site
					{
						OFFSET 0.000000 0.000000 10.528198
					}
				}
			}
			JOINT LeftCollar
			{
				OFFSET 2.676300 -1.652401 4.938301
				CHANNELS 6 Xposition Yposition Zposition Zrotation Xrotation Yrotation
				JOINT LeftShoulder
				{
					OFFSET 4.299000 0.000000 0.000000
					CHANNELS 6 Xposition Yposition Zposition Zrotation Xrotation Yrotation
					JOINT LeftElbow
					{
						OFFSET 0.000000 0.000000 -10.245102
						CHANNELS 6 Xposition Yposition Zposition Zrotation Xrotation Yrotation
						JOINT LeftWrist
						{
							OFFSET 0.000000 0.000000 -12.703300
							CHANNELS 6 Xposition Yposition Zposition Zrotation Xrotation Yrotation
							End Site
							{
								OFFSET 0.000000 0.000000 -2.173901
							}
						}
					}
				}
			}
			JOINT RightCollar
			{
				OFFSET -2.534599 -1.686401 5.195000
				CHANNELS 6 Xposition Yposition Zposition Zrotation Xrotation Yrotation
				JOINT RightShoulder
				{
					OFFSET -4.144100 0.000000 0.000000
					CHANNELS 6 Xposition Yposition Zposition Zrotation Xrotation Yrotation
					JOINT RightElbow
					{
						OFFSET 0.000000 0.000000 -10.116501
						CHANNELS 6 Xposition Yposition Zposition Zrotation Xrotation Yrotation
						JOINT RightWrist
						{
							OFFSET 0.000000 0.000000 -12.937801
							CHANNELS 6 Xposition Yposition Zposition Zrotation Xrotation Yrotation
							End Site
							{
								OFFSET 0.000000 0.000000 -2.173901
							}
						}
					}
				}
			}
		}
	}
	JOINT LeftHip
	{
		OFFSET 2.175598 0.064499 -2.662899
		CHANNELS 6 Xposition Yposition Zposition Zrotation Xrotation Yrotation
		JOINT LeftKnee
		{
			OFFSET 0.000000 -0.000004 -18.585800
			CHANNELS 6 Xposition Yposition Zposition Zrotation Xrotation Yrotation
			JOINT LeftAnkle
			{
				OFFSET 0.000000 0.000000 -18.979500
				CHANNELS 6 Xposition Yposition Zposition Zrotation Xrotation Yrotation
				End Site
				{
					OFFSET 0.000000 -9.264000 0.000000
				}
			}
		}
	}
	JOINT RightHip
	{
		OFFSET -2.092400 -0.058102 -2.581200
		CHANNELS 6 Xposition Yposition Zposition Zrotation Xrotation Yrotation
		JOINT RightKnee
		{
			OFFSET 0.000000 -0.000004 -18.665001
			CHANNELS 6 Xposition Yposition Zposition Zrotation Xrotation Yrotation
			JOINT RightAnkle
			{
				OFFSET 0.000000 0.000000 -18.566601
				CHANNELS 6 Xposition Yposition Zposition Zrotation Xrotation Yrotation
				End Site
				{
					OFFSET 0.000000 -8.497601 0.000000
				}
			}
		}
	}
}
MOTION
Frames: 8
Frame Time: 0.041667
52.655205 48.903305 43.765194 359.197408 -0.955265 5.056824 -0.153503 1.163105 7.852408 -1.252606 15.145193 6.898204 0.000006 0.000008 3.343304 -5.729888 -4.958996 -0.446992 -0.000003 -0.000006 7.785506 24.757460 17.076269 -14.795971 0.000001 -0.000013 2.173906 2.338075 5.279980 1.668186 2.676293 -1.652403 4.938306 0.023489 -1.395410 8.294838 4.298999 0.000003 -0.000008 -6.684022 16.640935 -44.299555 -0.000007 0.000005 -10.245111 235.994292 246.263563 212.837301 0.000011 -0.000002 -12.703296 51.564182 -17.423630 71.206887 -2.534593 -1.686402 5.195001 2.891937 3.611238 2.568727 -4.144110 0.000010 -0.000001 7.801819 15.959079 57.566856 0.000000 0.000001 -10.116501 -54.689830 -41.441193 -79.578022 -0.000001 0.000004 -12.937794 -9.818713 -39.808620 -52.963527 2.175592 0.064488 -2.662887 -325.194377 -28.687805 -8.387175 -0.000015 0.000004 -18.585796 160.803417 -231.151688 -173.871577 -0.000007 0.000005 -18.979500 330.004087 20.482178 -9.638226 -2.092395 -0.058106 -2.581190 -5.800282 -0.796127 -5.635134 -0.000006 -0.000010 -18.665003 -749.299073 20.725116 -5.732092 0.000014 -0.000001 -18.566605 731.620139 17.365969 9.478439
52.574505 48.956604 43.679996 359.314314 -0.868886 5.365359 -0.153506 1.163102 7.852395 -1.326595 14.978759 6.765599 0.000007 0.000005 3.343299 -6.108285 -4.979938 -0.486760 0.000001 0.000002 7.785499 25.296731 16.564290 -14.993302 -0.000003 -0.000005 2.173907 2.409206 5.408259 1.718062 2.676299 -1.652401 4.938293 0.068087 -1.554657 8.856004 4.299004 0.000002 -0.000001 -6.293155 15.915568 -43.732096 -0.000010 -0.000004 -10.245092 235.264828 244.378322 210.410247 -0.000004 -0.000006 -12.703294 52.423174 -16.899116 71.450261 -2.534593 -1.686404 5.194994 2.765732 3.413928 2.328746 -4.144114 0.000008 -0.000001 7.958432 16.342279 57.270709 0.000000 0.000010 -10.116499 -54.173096 -41.373328 -78.821804 0.000010 -0.000002 -12.937801 -11.994481 -39.674960 -53.293029 2.175592 0.064499 -2.662902 -323.154008 -30.231373 -7.559379 -0.000008 -0.000004 -18.585793 158.090848 -232.542888 -172.948163 -0.000021 0.000001 -18.979502 330.168776 20.796900 -9.690593 -2.092400 -0.058103 -2.581203 -6.419867 -1.131756 -6.004848 -0.000001 -0.000005 -18.665007 -748.839155 21.395663 -5.658081 0.000005 -0.000014 -18.566601 731.633144 16.787837 9.571706
52.489902 49.013702 43.599491 359.429006 -0.741819 5.717784 -0.153499 1.163105 7.852410 -1.391699 14.772077 6.588319 0.000009 0.000002 3.343294 -6.495384 -4.997040 -0.526890 -0.000006 0.000006 7.785503 25.743628 16.052247 -15.105363 -0.000001 0.000007 2.173908 2.553274 5.495706 1.711483 2.676297 -1.652390 4.938300 0.199992 -1.737549 9.249984 4.298998 0.000003 -0.000014 -6.251314 15.297192 -43.083546 0.000002 0.000002 -10.245115 234.158501 242.558923 207.578861 -0.000015 0.000000 -12.703298 53.538356 -16.508256 71.408986 -2.534602 -1.686389 5.195001 2.299611 3.065353 2.063464 -4.144096 0.000002 0.000009 8.372756 16.960709 56.878124 -0.000006 0.000000 -10.116499 -53.649729 -41.665923 -77.974287 0.000006 0.000000 -12.937811 -14.219175 -39.364002 -53.736175 2.175598 0.064487 -2.662891 -320.948103 -31.846505 -6.568925 -0.000006 -0.000008 -18.585804 155.510758 -233.927859 -172.160983 -0.000016 0.000009 -18.979504 330.103644 21.162583 -9.598812 -2.092396 -0.058099 -2.581192 -7.063705 -1.520111 -6.426881 0.000002 -0.000003 -18.665007 -748.368036 22.127241 -5.565983 -0.000001 -0.000001 -18.566603 731.706418 16.134488 9.602806
52.406609 49.069305 43.522797 359.485751 -0.635009 6.063842 -0.153500 1.163103 7.852405 -1.394691 14.568262 6.399584 0.000002 -0.000002 3.343303 -6.876791 -5.014117 -0.565695 -0.000003 -0.000004 7.785500 26.205264 15.565132 -15.246715 0.000002 0.000012 2.173904 2.634670 5.541811 1.734533 2.676298 -1.652402 4.938294 0.346554 -1.890228 9.520906 4.299003 0.000001 0.000004 -6.484583 14.774845 -42.443352 -0.000008 -0.000003 -10.245107 233.404394 240.689255 205.042825 -0.000008 -0.000007 -12.703293 54.630530 -16.168702 71.278515 -2.534602 -1.686413 5.194996 2.725806 3.071005 2.034991 -4.144109 0.000005 -0.000007 7.913652 17.217648 56.283952 0.000000 0.000006 -10.116493 -53.220291 -41.859354 -77.397771 0.000006 -0.000002 -12.937801 -16.224500 -39.310939 -53.893833 2.175596 0.064498 -2.662891 -318.622779 -33.381617 -5.470367 -0.000005 0.000000 -18.585804 152.865043 -235.222699 -171.306622 -0.000005 0.000005 -18.979502 330.051352 21.573619 -9.451727 -2.092399 -0.058103 -2.581196 -7.684689 -1.884581 -6.828448 -0.000001 -0.000004 -18.665007 -747.854078 22.923672 -5.488175 0.000013 -0.000006 -18.566605 731.867501 15.365854 9.515236
52.327507 49.122704 43.447994 359.402095 -0.531187 6.408598 -0.153495 1.163096 7.852403 -1.243290 14.316585 6.163110 0.000004 -0.000003 3.343305 -7.277253 -5.018694 -0.602484 -0.000007 0.000000 7.785501 26.685836 15.140513 -15.363086 -0.000013 0.000008 2.173911 2.676193 5.562035 1.755489 2.676290 -1.652400 4.938301 0.448658 -1.942066 9.765168 4.298999 0.000003 0.000007 -6.742936 14.240923 -41.914552 -0.000015 -0.000012 -10.245108 232.817872 238.866305 202.773877 -0.000011 0.000007 -12.703301 55.655434 -15.878487 71.006011 -2.534601 -1.686397 5.194994 3.151493 3.131126 2.047271 -4.144105 0.000003 -0.000001 7.609684 17.446024 55.640166 0.000000 0.000010 -10.116501 -52.756142 -42.066083 -76.725940 -0.000003 -0.000001 -12.937794 -17.754512 -38.893652 -53.899260 2.175598 0.064488 -2.662895 -315.676590 -34.944330 -4.125278 -0.000001 0.000000 -18.585808 149.859514 -236.466395 -170.319072 -0.000006 -0.000004 -18.979500 329.862210 22.009023 -9.222770 -2.092397 -0.058107 -2.581199 -7.137619 -2.137074 -7.170219 0.000004 -0.000006 -18.665001 -744.469637 23.334481 -6.754767 0.000009 -0.000014 -18.566601 728.844787 14.064563 8.638392
52.248199 49.172302 43.377293 359.197517 -0.553398 6.735500 -0.153501 1.163099 7.852402 -0.976716 14.194465 5.987066 -0.000001 0.000005 3.343301 -7.654004 -5.030116 -0.640418 0.000000 0.000006 7.785495 27.168286 14.700080 -15.535948 0.000000 -0.000002 2.173904 2.825898 5.641009 1.255182 2.676302 -1.652396 4.938291 0.493681 -1.955408 9.848797 4.298999 -0.000002 -0.000002 -7.082574 13.616232 -41.498857 -0.000006 -0.000009 -10.245107 232.478056 236.892216 200.851357 -0.000010 0.000001 -12.703303 56.505523 -15.666410 70.684296 -2.534591 -1.686392 5.194991 2.266557 2.694750 1.784381 -4.144108 -0.000000 0.000004 8.409099 18.073488 55.433713 0.000002 0.000006 -10.116503 -52.260260 -42.198080 -76.269137 0.000002 -0.000005 -12.937803 -19.520834 -38.813930 -53.887020 2.175591 0.064487 -2.662896 -313.022870 -36.249880 -2.901477 -0.000010 -0.000004 -18.585810 147.270463 -237.598621 -169.434618 -0.000003 0.000002 -18.979504 329.774374 22.500305 -9.104379 -2.092396 -0.058107 -2.581202 -7.151654 -2.319931 -7.523593 -0.000000 -0.000010 -18.665007 -742.469812 23.904784 -7.359034 0.000012 -0.000010 -18.566605 727.560220 13.102352 8.060112
52.168907 49.220005 43.311394 358.957122 -0.578175 7.060943 -0.153502 1.163096 7.852402 -0.680524 14.066471 5.835038 0.000003 -0.000000 3.343307 -8.073497 -5.044486 -0.688743 0.000002 -0.000004 7.785503 27.696912 14.252137 -15.748394 0.000003 0.000015 2.173908 2.861811 5.629307 1.275230 2.676298 -1.652396 4.938302 0.653879 -2.008739 9.904424 4.298997 -0.000006 0.000006 -7.437829 13.067179 -41.179299 -0.000006 -0.000001 -10.245103 232.278724 234.974900 199.234432 -0.000008 0.000003 -12.703294 57.471759 -15.367652 70.684426 -2.534594 -1.686401 5.194998 2.207083 2.639718 1.646534 -4.144110 0.000004 -0.000001 8.436436 18.305699 55.163261 -0.000002 -0.000007 -10.116497 -51.786798 -42.257011 -75.899200 0.000000 0.000003 -12.937799 -20.770887 -38.557869 -53.794952 2.175587 0.064496 -2.662905 -310.114412 -37.522631 -1.472905 -0.000000 -0.000011 -18.585804 144.573740 -238.695277 -168.522705 -0.000016 0.000010 -18.979504 329.716290 23.098088 -9.181793 -2.092401 -0.058110 -2.581205 -7.130410 -2.478695 -7.873092 0.000000 -0.000008 -18.665007 -741.153990 24.354539 -7.798557 0.000004 -0.000016 -18.566601 726.794091 12.360938 7.851073
52.093800 49.263901 43.248291 358.646567 -0.657970 7.343660 -0.153500 1.163105 7.852397 -0.335453 14.010802 5.779559 0.000012 -0.000004 3.343307 -8.640838 -5.080212 -1.022369 0.000003 -0.000004 7.785498 28.362036 13.876293 -15.820352 0.000000 -0.000000 2.173901 2.898754 5.630533 1.294409 2.676298 -1.652405 4.938297 1.071885 -2.111592 10.092726 4.299007 0.000006 0.000008 -7.811789 12.427552 -41.142970 -0.000010 0.000010 -10.245103 232.225448 232.816451 198.061102 -0.000006 0.000007 -12.703300 57.937332 -15.381656 70.370606 -2.534594 -1.686397 5.194998 2.262621 2.652448 1.651917 -4.144096 0.000010 -0.000002 8.513641 18.553374 55.078649 0.000002 -0.000002 -10.116494 -51.479037 -42.200454 -75.644837 0.000006 0.000007 -12.937805 -21.831981 -38.298496 -53.698609 2.175598 0.064502 -2.662905 -306.903567 -38.681885 0.165878 -0.000000 -0.000010 -18.585800 141.603564 -239.763245 -167.443590 -0.000006 -0.000001 -18.979504 329.789728 23.737131 -9.268410 -2.092397 -0.058106 -2.581206 -7.009985 -2.562897 -8.162190 -0.000006 -0.000012 -18.665007 -740.439115 24.699709 -8.099017 0.000005 -0.000005 -18.566605 726.393350 12.107867 7.926151
